<svg width="18" height="20" viewBox="0 0 18 20" fill="none" xmlns="http://www.w3.org/2000/svg">
<path d="M0 1.42857C0 0.638393 0.651693 0 1.45833 0H3.64583H4.375H10.2083C13.4303 0 16.0417 2.55804 16.0417 5.71429C16.0417 7.11161 15.5267 8.39732 14.6745 9.38839C16.3652 10.3884 17.5 12.2054 17.5 14.2857C17.5 17.442 14.8887 20 11.6667 20H4.375H3.64583H1.45833C0.651693 20 0 19.3616 0 18.5714C0 17.7812 0.651693 17.1429 1.45833 17.1429H2.1875V10V2.85714H1.45833C0.651693 2.85714 0 2.21875 0 1.42857ZM10.2083 8.57143C11.8171 8.57143 13.125 7.29018 13.125 5.71429C13.125 4.13839 11.8171 2.85714 10.2083 2.85714H5.10417V8.57143H10.2083ZM5.10417 11.4286V17.1429H11.6667C13.2754 17.1429 14.5833 15.8616 14.5833 14.2857C14.5833 12.7098 13.2754 11.4286 11.6667 11.4286H10.2083H5.10417Z" fill="white"/>
</svg>
