<svg width="20" height="20" viewBox="0 0 20 20" fill="none" xmlns="http://www.w3.org/2000/svg">
<path d="M15.2381 1.42857C15.2381 0.638393 14.619 0 13.8528 0H5.54113C4.77489 0 4.15584 0.638393 4.15584 1.42857C4.15584 2.21875 4.77489 2.85714 5.54113 2.85714H13.8528C14.619 2.85714 15.2381 2.21875 15.2381 1.42857ZM19.3939 7.14286C19.3939 6.35268 18.7749 5.71429 18.0087 5.71429H1.38528C0.619048 5.71429 0 6.35268 0 7.14286C0 7.93304 0.619048 8.57143 1.38528 8.57143H18.0087C18.7749 8.57143 19.3939 7.93304 19.3939 7.14286ZM0 18.5714C0 19.3616 0.619048 20 1.38528 20H18.0087C18.7749 20 19.3939 19.3616 19.3939 18.5714C19.3939 17.7812 18.7749 17.1429 18.0087 17.1429H1.38528C0.619048 17.1429 0 17.7812 0 18.5714ZM15.2381 12.8571C15.2381 12.067 14.619 11.4286 13.8528 11.4286H5.54113C4.77489 11.4286 4.15584 12.067 4.15584 12.8571C4.15584 13.6473 4.77489 14.2857 5.54113 14.2857H13.8528C14.619 14.2857 15.2381 13.6473 15.2381 12.8571Z" fill="white"/>
</svg>
