<svg width="24" height="20" viewBox="0 0 24 20" fill="none" xmlns="http://www.w3.org/2000/svg">
<path d="M1.16129 0C0.517742 0 0 0.514423 0 1.15385V3.46154C0 4.10096 0.517742 4.61538 1.16129 4.61538H3.48387C4.12742 4.61538 4.64516 4.10096 4.64516 3.46154V1.15385C4.64516 0.514423 4.12742 0 3.48387 0H1.16129ZM8.51613 0.769231C7.65968 0.769231 6.96774 1.45673 6.96774 2.30769C6.96774 3.15865 7.65968 3.84615 8.51613 3.84615H22.4516C23.3081 3.84615 24 3.15865 24 2.30769C24 1.45673 23.3081 0.769231 22.4516 0.769231H8.51613ZM8.51613 8.46154C7.65968 8.46154 6.96774 9.14904 6.96774 10C6.96774 10.851 7.65968 11.5385 8.51613 11.5385H22.4516C23.3081 11.5385 24 10.851 24 10C24 9.14904 23.3081 8.46154 22.4516 8.46154H8.51613ZM8.51613 16.1538C7.65968 16.1538 6.96774 16.8413 6.96774 17.6923C6.96774 18.5433 7.65968 19.2308 8.51613 19.2308H22.4516C23.3081 19.2308 24 18.5433 24 17.6923C24 16.8413 23.3081 16.1538 22.4516 16.1538H8.51613ZM0 8.84615V11.1538C0 11.7933 0.517742 12.3077 1.16129 12.3077H3.48387C4.12742 12.3077 4.64516 11.7933 4.64516 11.1538V8.84615C4.64516 8.20673 4.12742 7.69231 3.48387 7.69231H1.16129C0.517742 7.69231 0 8.20673 0 8.84615ZM1.16129 15.3846C0.517742 15.3846 0 15.899 0 16.5385V18.8462C0 19.4856 0.517742 20 1.16129 20H3.48387C4.12742 20 4.64516 19.4856 4.64516 18.8462V16.5385C4.64516 15.899 4.12742 15.3846 3.48387 15.3846H1.16129Z" fill="white"/>
</svg>
