<svg width="18" height="20" viewBox="0 0 18 20" fill="none" xmlns="http://www.w3.org/2000/svg">
<path d="M5.83333 1.42857C5.83333 0.638393 6.48503 0 7.29167 0H16.0417C16.8483 0 17.5 0.638393 17.5 1.42857C17.5 2.21875 16.8483 2.85714 16.0417 2.85714H13.3665L7.29167 17.1429H10.2083C11.015 17.1429 11.6667 17.7812 11.6667 18.5714C11.6667 19.3616 11.015 20 10.2083 20H1.45833C0.651693 20 0 19.3616 0 18.5714C0 17.7812 0.651693 17.1429 1.45833 17.1429H4.13346L10.2083 2.85714H7.29167C6.48503 2.85714 5.83333 2.21875 5.83333 1.42857Z" fill="#47CF73"/>
</svg>
