<svg width="20" height="20" viewBox="0 0 20 20" fill="none" xmlns="http://www.w3.org/2000/svg">
<path d="M0.714286 1.42857C0.714286 0.638393 1.35268 0 2.14286 0H6.42857C7.21875 0 7.85714 0.638393 7.85714 1.42857C7.85714 2.21875 7.21875 2.85714 6.42857 2.85714H5.71429V8.57143C5.71429 10.9375 7.63393 12.8571 10 12.8571C12.3661 12.8571 14.2857 10.9375 14.2857 8.57143V2.85714H13.5714C12.7812 2.85714 12.1429 2.21875 12.1429 1.42857C12.1429 0.638393 12.7812 0 13.5714 0H17.8571C18.6473 0 19.2857 0.638393 19.2857 1.42857C19.2857 2.21875 18.6473 2.85714 17.8571 2.85714H17.1429V8.57143C17.1429 12.5179 13.9464 15.7143 10 15.7143C6.05357 15.7143 2.85714 12.5179 2.85714 8.57143V2.85714H2.14286C1.35268 2.85714 0.714286 2.21875 0.714286 1.42857ZM0 18.5714C0 17.7812 0.638393 17.1429 1.42857 17.1429H18.5714C19.3616 17.1429 20 17.7812 20 18.5714C20 19.3616 19.3616 20 18.5714 20H1.42857C0.638393 20 0 19.3616 0 18.5714Z" fill="#47CF73"/>
</svg>
