<svg width="29" height="18" viewBox="0 0 29 18" fill="none" xmlns="http://www.w3.org/2000/svg">
<path d="M3.21667 1.5C3.21667 0.670312 2.49794 0 1.60833 0C0.718724 0 0 0.670312 0 1.5V9V16.5C0 17.3297 0.718724 18 1.60833 18C2.49794 18 3.21667 17.3297 3.21667 16.5V10.5H12.8667V16.5C12.8667 17.3297 13.5854 18 14.475 18C15.3646 18 16.0833 17.3297 16.0833 16.5V9V1.5C16.0833 0.670312 15.3646 0 14.475 0C13.5854 0 12.8667 0.670312 12.8667 1.5V7.5H3.21667V1.5ZM25.7333 1.5C25.7333 0.979687 25.4468 0.496875 24.9694 0.225C24.4919 -0.0468749 23.9039 -0.0749999 23.4063 0.159375L20.1896 1.65938C19.3955 2.02969 19.0738 2.92969 19.4709 3.67031C19.8679 4.41094 20.8329 4.71094 21.6271 4.34063L22.5167 3.92813V15H20.9083C20.0187 15 19.3 15.6703 19.3 16.5C19.3 17.3297 20.0187 18 20.9083 18H24.125H27.3417C28.2313 18 28.95 17.3297 28.95 16.5C28.95 15.6703 28.2313 15 27.3417 15H25.7333V1.5Z" fill="white"/>
</svg>
