<svg width="27" height="15" viewBox="0 0 27 15" fill="none" xmlns="http://www.w3.org/2000/svg">
<path d="M2.67432 1.25358C2.67432 0.562353 2.07678 0.00390517 1.33716 0.00390517C0.597544 0.00390517 0 0.562353 0 1.25358V7.50195V13.7503C0 14.4416 0.597544 15 1.33716 15C2.07678 15 2.67432 14.4416 2.67432 13.7503V8.75163H10.6973V13.7503C10.6973 14.4416 11.2948 15 12.0344 15C12.7741 15 13.3716 14.4416 13.3716 13.7503V7.50195V1.25358C13.3716 0.562353 12.7741 0.00390517 12.0344 0.00390517C11.2948 0.00390517 10.6973 0.562353 10.6973 1.25358V6.25228H2.67432V1.25358ZM18.7996 3.10466C19.2844 2.71804 19.9028 2.50325 20.5421 2.50325H20.7302C22.2052 2.50325 23.4045 3.62406 23.4045 5.0026V5.22911C23.4045 5.92814 23.0911 6.59984 22.5353 7.07238L15.8119 12.8287C15.4066 13.1763 15.2687 13.723 15.4693 14.2033C15.6699 14.6837 16.1629 15 16.7145 15H25.4061C26.1457 15 26.7432 14.4416 26.7432 13.7503C26.7432 13.0591 26.1457 12.5007 25.4061 12.5007H20.1535L24.3405 8.91174C25.4437 7.96668 26.0746 6.62718 26.0746 5.2252V4.9987C26.0746 2.2377 23.6803 0 20.726 0H20.538C19.2593 0 18.0266 0.42567 17.0572 1.20281L15.8454 2.17521C15.2854 2.62432 15.2186 3.41317 15.6991 3.93647C16.1796 4.45978 17.0237 4.52226 17.5837 4.07316L18.7955 3.10075L18.7996 3.10466Z" fill="white"/>
</svg>
