<svg width="20" height="20" viewBox="0 0 20 20" fill="none" xmlns="http://www.w3.org/2000/svg">
<path d="M12.4675 1.42857C12.4675 2.21875 11.8485 2.85714 11.0823 2.85714H1.38528C0.619048 2.85714 0 2.21875 0 1.42857C0 0.638393 0.619048 0 1.38528 0H11.0823C11.8485 0 12.4675 0.638393 12.4675 1.42857ZM12.4675 12.8571C12.4675 13.6473 11.8485 14.2857 11.0823 14.2857H1.38528C0.619048 14.2857 0 13.6473 0 12.8571C0 12.067 0.619048 11.4286 1.38528 11.4286H11.0823C11.8485 11.4286 12.4675 12.067 12.4675 12.8571ZM0 7.14286C0 6.35268 0.619048 5.71429 1.38528 5.71429H18.0087C18.7749 5.71429 19.3939 6.35268 19.3939 7.14286C19.3939 7.93304 18.7749 8.57143 18.0087 8.57143H1.38528C0.619048 8.57143 0 7.93304 0 7.14286ZM19.3939 18.5714C19.3939 19.3616 18.7749 20 18.0087 20H1.38528C0.619048 20 0 19.3616 0 18.5714C0 17.7812 0.619048 17.1429 1.38528 17.1429H18.0087C18.7749 17.1429 19.3939 17.7812 19.3939 18.5714Z" fill="white"/>
</svg>
