<svg width="24" height="20" viewBox="0 0 24 20" fill="none" xmlns="http://www.w3.org/2000/svg">
<path d="M0.737127 1.07143C0.737127 0.477679 1.22801 0 1.83817 0H3.30623C3.91639 0 4.40727 0.477679 4.40727 1.07143V6.42857H5.1413C5.75146 6.42857 6.24234 6.90625 6.24234 7.5C6.24234 8.09375 5.75146 8.57143 5.1413 8.57143H1.47116C0.860994 8.57143 0.370113 8.09375 0.370113 7.5C0.370113 6.90625 0.860994 6.42857 1.47116 6.42857H2.20518V2.14286H1.83817C1.22801 2.14286 0.737127 1.66518 0.737127 1.07143ZM3.6136 13.8036C3.3154 13.4732 2.77406 13.4955 2.51256 13.8571L1.99874 14.5491C1.64549 15.0312 0.957335 15.1429 0.461866 14.7991C-0.0336033 14.4554 -0.148295 13.7857 0.204956 13.3036L0.714188 12.6071C1.80147 11.125 4.03108 11.0179 5.26517 12.3884C6.24234 13.4777 6.2194 15.1071 5.2147 16.1696L3.61819 17.8571H5.1413C5.75146 17.8571 6.24234 18.3348 6.24234 18.9286C6.24234 19.5223 5.75146 20 5.1413 20H1.10414C0.668312 20 0.269184 19.75 0.0948518 19.3571C-0.07948 18.9643 -0.0014895 18.5134 0.292122 18.2009L3.59525 14.7188C3.8384 14.4598 3.84299 14.067 3.60901 13.8036H3.6136ZM9.91249 1.42857H21.6569C22.469 1.42857 23.125 2.06696 23.125 2.85714C23.125 3.64732 22.469 4.28571 21.6569 4.28571H9.91249C9.10047 4.28571 8.44443 3.64732 8.44443 2.85714C8.44443 2.06696 9.10047 1.42857 9.91249 1.42857ZM9.91249 8.57143H21.6569C22.469 8.57143 23.125 9.20982 23.125 10C23.125 10.7902 22.469 11.4286 21.6569 11.4286H9.91249C9.10047 11.4286 8.44443 10.7902 8.44443 10C8.44443 9.20982 9.10047 8.57143 9.91249 8.57143ZM9.91249 15.7143H21.6569C22.469 15.7143 23.125 16.3527 23.125 17.1429C23.125 17.933 22.469 18.5714 21.6569 18.5714H9.91249C9.10047 18.5714 8.44443 17.933 8.44443 17.1429C8.44443 16.3527 9.10047 15.7143 9.91249 15.7143Z" fill="white"/>
</svg>
