<svg width="20" height="20" viewBox="0 0 20 20" fill="none" xmlns="http://www.w3.org/2000/svg">
<path d="M19.3939 1.42857C19.3939 2.21875 18.7749 2.85714 18.0087 2.85714H8.31169C7.54545 2.85714 6.92641 2.21875 6.92641 1.42857C6.92641 0.638393 7.54545 0 8.31169 0H18.0087C18.7749 0 19.3939 0.638393 19.3939 1.42857ZM19.3939 12.8571C19.3939 13.6473 18.7749 14.2857 18.0087 14.2857H8.31169C7.54545 14.2857 6.92641 13.6473 6.92641 12.8571C6.92641 12.067 7.54545 11.4286 8.31169 11.4286H18.0087C18.7749 11.4286 19.3939 12.067 19.3939 12.8571ZM0 7.14286C0 6.35268 0.619048 5.71429 1.38528 5.71429H18.0087C18.7749 5.71429 19.3939 6.35268 19.3939 7.14286C19.3939 7.93304 18.7749 8.57143 18.0087 8.57143H1.38528C0.619048 8.57143 0 7.93304 0 7.14286ZM19.3939 18.5714C19.3939 19.3616 18.7749 20 18.0087 20H1.38528C0.619048 20 0 19.3616 0 18.5714C0 17.7812 0.619048 17.1429 1.38528 17.1429H18.0087C18.7749 17.1429 19.3939 17.7812 19.3939 18.5714Z" fill="white"/>
</svg>
